<svg width="100" height="100" viewBox="0 0 100 100" fill="none" xmlns="http://www.w3.org/2000/svg">
  <path d="M50 20C30 20 20 30 20 50C20 70 30 80 50 80C70 80 80 70 80 50C80 30 70 20 50 20Z" stroke="currentColor" stroke-width="2" stroke-linecap="round" stroke-linejoin="round"/>
  <path d="M35 40C35 35 40 30 45 30" stroke="currentColor" stroke-width="2" stroke-linecap="round"/>
  <path d="M65 40C65 35 60 30 55 30" stroke="currentColor" stroke-width="2" stroke-linecap="round"/>
  <path d="M40 55C40 60 45 65 50 65C55 65 60 60 60 55" stroke="currentColor" stroke-width="2" stroke-linecap="round" stroke-linejoin="round"/>
  <path d="M35 50L30 55" stroke="currentColor" stroke-width="2" stroke-linecap="round"/>
  <path d="M65 50L70 55" stroke="currentColor" stroke-width="2" stroke-linecap="round"/>
</svg>